<?xml version="1.0" encoding="UTF-8" standalone="no"?>
<!-- Generator: Adobe Illustrator 19.2.1, SVG Export Plug-In . SVG Version: 6.00 Build 0)  -->

<svg
   version="1.1"
   id="layer"
   x="0px"
   y="0px"
   viewBox="0 0 829.87598 200"
   xml:space="preserve"
   sodipodi:docname="Taboola.svg"
   width="829.87598"
   height="200"
   inkscape:version="1.3 (0e150ed6c4, 2023-07-21)"
   xmlns:inkscape="http://www.inkscape.org/namespaces/inkscape"
   xmlns:sodipodi="http://sodipodi.sourceforge.net/DTD/sodipodi-0.dtd"
   xmlns="http://www.w3.org/2000/svg"
   xmlns:svg="http://www.w3.org/2000/svg"><defs
   id="defs8" /><sodipodi:namedview
   id="namedview8"
   pagecolor="#ffffff"
   bordercolor="#000000"
   borderopacity="0.25"
   inkscape:showpageshadow="2"
   inkscape:pageopacity="0.0"
   inkscape:pagecheckerboard="0"
   inkscape:deskcolor="#d1d1d1"
   inkscape:zoom="0.36196319"
   inkscape:cx="324.61864"
   inkscape:cy="324.61864"
   inkscape:window-width="1920"
   inkscape:window-height="991"
   inkscape:window-x="-9"
   inkscape:window-y="-9"
   inkscape:window-maximized="1"
   inkscape:current-layer="layer" />&#10;<style
   type="text/css"
   id="style1">&#10;	.st0{fill:#004B7A;}&#10;</style>&#10;&#10;&#10;&#10;&#10;&#10;&#10;&#10;<g
   id="g8"
   transform="matrix(1.3831259,0,0,1.3831259,-28.630488,-344.39835)"
   style="fill:#808080"><path
     class="st0"
     d="M 55.6,281.1 H 20.7 v -31.8 h 108 v 31.8 H 93.8 v 93.2 H 55.6 Z"
     id="path1"
     style="fill:#808080" /><path
     class="st0"
     d="m 160.5,333.5 c -4.4,1.9 -8.9,3.3 -13.6,4.1 -7.7,1.7 -11.7,3.6 -11.8,9.7 0.8,5.2 5.6,8.8 10.8,8.3 7.6,0.5 14.1,-5.3 14.6,-12.8 0,-0.3 0,-0.6 0,-0.9 z m 33.1,20.7 c -0.6,7 0.8,14.1 4.1,20.3 L 162.4,374 c -0.9,-2.7 -1.3,-5.5 -1.2,-8.3 h -0.4 c -7.4,8.3 -18,10.7 -29.2,10.6 -17.5,0 -31.9,-8.6 -31.8,-27.6 0,-28.6 33.7,-27.4 51.3,-30.6 4.8,-1 9.3,-2.2 9.3,-8.1 0,-5.9 -5.7,-8.3 -11.3,-8.3 -10.6,0 -12.8,5.3 -13,9.2 H 104 c 1.2,-25.4 25.3,-29.5 46.8,-29.4 43.4,-0.1 43,17.8 42.7,35.3 v 37.4 z"
     id="path2"
     style="fill:#808080" /><path
     class="st0"
     d="m 250.7,307 c -12.4,0 -15.2,11.6 -15.3,22.2 -0.1,10.6 2.6,22.6 15.1,22.6 12.4,0 15.3,-11.6 15.3,-22.4 0,-10.8 -2.7,-22.4 -15.1,-22.4 m -48.1,-58 h 34.6 l -0.2,44.9 h 0.3 c 5.8,-7.9 15.1,-12.4 24.8,-12.1 30.3,0 38.4,26 38.3,47.3 0,22.7 -12.7,47.9 -38.3,47.8 -16.9,0 -22.1,-6.6 -26.4,-12.4 h -0.3 v 9.7 h -32.6 z"
     id="path3"
     style="fill:#808080" /><path
     class="st0"
     d="m 348.8,274.4 c -13.1,0 -14.9,12.7 -15,22.2 -0.1,9.6 1.6,22.5 14.7,22.6 13.1,0.1 14.9,-12.8 15,-22.4 0.1,-9.6 -1.6,-22.1 -14.7,-22.4 m -0.4,70 c -34,0 -49.2,-22.8 -49.1,-47.9 0.1,-25.1 15.6,-47.4 49.7,-47.2 34.1,0.2 49.2,22.6 49.1,47.8 -0.2,25.1 -15.7,47.5 -49.7,47.3"
     id="path4"
     style="fill:#808080" /><path
     class="st0"
     d="m 434.5,274.4 c -13.1,0 -14.9,12.7 -14.9,22.3 0,9.6 1.6,22.5 14.7,22.6 13.1,0.1 14.9,-12.8 14.9,-22.4 0,-9.6 -1.6,-22.4 -14.7,-22.5 m -0.4,70 c -34,0 -49.2,-22.8 -49.1,-47.9 0.2,-25.1 15.6,-47.4 49.7,-47.2 34.1,0.2 49.2,22.6 49.1,47.8 -0.2,25.1 -15.7,47.5 -49.7,47.3"
     id="path5"
     style="fill:#808080" /><path
     class="st0"
     d="m 487.4,249.3 h 33.8 v 125 h -33.8 z"
     id="path6"
     style="fill:#808080" /><path
     class="st0"
     d="m 584.2,333.2 c -4.4,1.9 -8.9,3.3 -13.6,4.1 -7.7,1.7 -11.7,3.6 -11.8,9.7 0.8,5.2 5.6,8.8 10.8,8.3 7.5,0.5 14.1,-5.2 14.5,-12.8 0,-0.4 0,-0.9 0,-1.3 z m 33.1,20.7 c 0,6.8 -0.4,14.8 3.4,20.7 H 586 c -0.9,-2.9 -1.3,-6 -1.2,-9.1 h -0.4 c -7.4,8.3 -18,10.7 -29.2,10.6 -17.5,0 -31.9,-8.6 -31.8,-27.6 0,-28.6 33.6,-27.4 51.3,-30.6 4.7,-0.9 9.4,-2.2 9.5,-8 0,-5.8 -5.7,-8.3 -11.3,-8.3 -10.6,0 -12.8,5.3 -13,9.2 h -32.1 c 1.2,-25.5 25.3,-29.5 46.8,-29.4 43.3,0.2 42.8,18.2 42.7,35.7 z"
     id="path7"
     style="fill:#808080" /><path
     class="st0"
     d="m 312.2,344.4 c 24.5,10.8 51,16.2 77.7,16 29,0 51.2,-5.3 79.2,-16 v 30.2 c -24.6,12.4 -51.7,18.9 -79.2,19 -29.5,0 -50.7,-6.2 -77.7,-19 z"
     id="path8"
     style="fill:#808080" /></g>&#10;<path
   style="fill:#f9f9f9;stroke-width:3.65461"
   d="M 49.728814,107.74576 V 42.822034 H 24.864407 0 V 22.101695 1.3813559 h 74.59322 74.59322 V 22.101695 42.822034 H 124.32203 99.457627 v 64.923726 64.92373 H 74.59322 49.728814 Z"
   id="path15" /><path
   style="fill:#f9f9f9;stroke-width:3.65461"
   d="m 136.65046,172.65395 c -21.54589,-6.67794 -32.35305,-33.39881 -20.89015,-51.65118 7.5798,-12.06931 17.55382,-16.59792 47.0704,-21.371874 13.83803,-2.238133 26.37484,-4.820117 27.85959,-5.737738 3.71852,-2.298176 3.40718,-17.155137 -0.40893,-19.513625 -1.70966,-1.056624 -8.17873,-1.921135 -14.37572,-1.921135 -8.44226,0 -12.24982,1.479825 -15.18614,5.902156 -3.41837,5.148355 -6.54595,5.902158 -24.48842,5.902158 -20.03925,0 -20.52171,-0.160251 -18.71434,-6.216102 5.58555,-18.715193 21.07737,-28.177009 51.18455,-31.26158 24.15195,-2.474439 47.4577,2.532617 58.76054,12.624237 l 8.75002,7.812365 1.38136,49.270538 c 0.75975,27.0988 2.38714,50.82457 3.61644,52.72393 1.72665,2.66782 -3.14391,3.45339 -21.41102,3.45339 -23.41628,0 -23.6461,-0.0675 -23.6461,-6.94598 v -6.94598 l -10.75094,7.11465 c -11.99879,7.94041 -34.76178,11.09764 -48.75114,6.76177 z m 51.68709,-29.42112 c 3.42971,-3.10385 5.05228,-8.45863 5.05228,-16.67347 0,-10.62442 -0.59002,-11.79969 -4.83475,-9.63044 -2.65911,1.35893 -9.06752,3.27488 -14.24092,4.25768 -5.17341,0.98279 -11.0787,3.17495 -13.12289,4.87148 -4.61141,3.82713 -4.83298,14.00021 -0.40144,18.43175 4.82566,4.82566 21.67606,4.05677 27.54772,-1.257 z"
   id="path16" /><path
   style="fill:#f9f9f9;stroke-width:3.65461"
   d="m 312.83475,171.29555 c -4.96165,-2.1562 -9.75673,-5.8372 -10.65574,-8.18 -2.54524,-6.63277 -6.56884,-5.0113 -6.56884,2.64716 0,6.7533 -0.46045,6.90678 -20.72034,6.90678 H 254.16949 V 87.025424 1.3813559 h 22.1017 22.10169 V 31.771186 c 0,16.714407 1.05054,30.389831 2.33453,30.389831 1.28399,0 4.58947,-2.491684 7.34551,-5.537074 11.44463,-12.646181 38.99783,-12.540035 56.91662,0.219268 16.33442,11.631136 24.45285,51.558739 16.13099,79.334619 -4.34563,14.50444 -17.62012,30.59422 -29.25008,35.45353 -11.55867,4.82952 -27.44439,4.69279 -39.0157,-0.33581 z m 20.21354,-34.69768 c 6.53432,-7.22034 8.65976,-36.746056 3.36635,-46.763854 -8.23157,-15.578302 -30.27821,-14.365397 -37.13405,2.042948 -5.47158,13.095336 -3.75593,37.150886 3.19761,44.834456 6.87139,7.5928 23.65235,7.53047 30.57009,-0.11355 z"
   id="path17" /><path
   style="fill:#f9f9f9;stroke-width:3.65461"
   d="m 435.12712,128.80703 c -37.09564,-9.7539 -56.07276,-45.201244 -45.29347,-84.60364 4.25517,-15.554264 25.27438,-35.4259179 41.89978,-39.6122441 27.35283,-6.8875216 54.09284,-0.8580925 70.94869,15.9977521 l 10.61493,10.61493 10.59565,-10.850937 c 22.10578,-22.6383689 64.38059,-24.9614817 92.3117,-5.072773 12.68652,9.033597 21.92179,30.559317 21.95505,51.173203 0.0522,32.369628 -18.31362,55.559909 -49.24373,62.179279 -26.05946,5.577 -48.24135,-0.58793 -67.10739,-18.65091 l -10.0137,-9.58745 -5.89117,8.27339 c -3.24015,4.55037 -11.23503,10.86031 -17.7664,14.02209 -13.15178,6.36667 -40.19348,9.48726 -53.00994,6.11731 z m 33.41503,-36.546234 c 4.16233,-4.599316 5.26293,-10.02729 5.26293,-25.955711 0,-15.928421 -1.1006,-21.356396 -5.26293,-25.955711 -5.67362,-6.269279 -17.91343,-7.652574 -26.59604,-3.005781 -11.91543,6.376944 -13.60879,44.273383 -2.47578,55.406396 7.25032,7.250321 22.2968,6.997129 29.07182,-0.489193 z m 118.79661,0 c 4.16233,-4.599316 5.26294,-10.02729 5.26294,-25.955711 0,-24.640481 -4.73227,-31.771187 -21.08484,-31.771187 -8.08991,0 -11.57242,1.546724 -14.893,6.614565 -9.32993,14.239269 -8.48581,41.472637 1.59803,51.55648 7.29473,7.294725 22.32072,7.06552 29.11687,-0.444147 z"
   id="path19" /><path
   style="fill:#f9f9f9;stroke-width:3.65461"
   d="M 646.47458,87.025424 V 1.3813559 h 22.10169 22.1017 V 87.025424 172.66949 h -22.1017 -22.10169 z"
   id="path20" /><path
   style="fill:#f9f9f9;stroke-width:3.65461"
   d="m 723.11365,171.56817 c -12.84119,-4.68701 -17.86222,-8.75443 -22.94836,-18.58993 -8.22993,-15.91493 -1.34266,-36.58636 15.00665,-45.04092 6.59567,-3.41075 49.40081,-12.623761 58.65207,-12.623761 4.72853,0 8.30902,-10.880501 5.38092,-16.351712 -5.52988,-10.332668 -33.27273,-9.425144 -33.27273,1.088417 0,3.419594 -4.11122,4.212448 -21.84305,4.212448 -21.27744,0 -21.80222,-0.160961 -20.26625,-6.216102 2.76097,-10.8844 9.47798,-18.797889 21.1203,-24.8824 16.09401,-8.411043 61.44419,-8.804947 77.44631,-0.672685 19.51396,9.916979 20.46877,13.025432 21.42774,69.759835 l 0.85224,50.42086 -21.41102,-0.001 c -21.02846,-0.001 -21.41101,-0.12546 -21.41101,-6.94734 v -6.94598 l -10.36017,6.70135 c -13.1012,8.47435 -34.46964,11.16422 -48.37364,6.08929 z m 51.63297,-29.07408 c 2.64351,-2.92104 5.51402,-10.58682 6.37891,-17.03505 1.33485,-9.95202 0.908,-11.46906 -2.82404,-10.03694 -2.41812,0.92792 -9.75802,3.12076 -16.3109,4.87297 -6.55287,1.75222 -13.46834,4.45974 -15.36771,6.01672 -4.38675,3.59598 -4.46468,13.8515 -0.13813,18.17804 5.29169,5.29169 22.78476,4.0564 28.26187,-1.99574 z"
   id="path21" /><path
   style="fill:#f9f9f9;stroke-width:3.65461"
   d="m 460.59812,193.20461 c -8.78332,-2.12792 -25.25599,-7.73485 -36.60593,-12.45984 l -20.63626,-8.5909 v -19.37675 c 0,-17.38403 0.49721,-19.1684 4.83475,-17.35082 59.22091,24.81567 134.65989,25.93746 199.03466,2.95968 l 11.86094,-4.23361 -0.81009,19.88806 -0.81009,19.88807 -20.10378,7.71222 c -11.05708,4.24171 -28.85425,9.55293 -39.54926,11.8027 -24.1921,5.08896 -75.74648,4.96232 -97.21494,-0.23881 z"
   id="path22" /></svg>
