<?xml version="1.0" encoding="UTF-8" standalone="no"?>
<svg
   width="886.09601"
   height="200"
   viewBox="0 0 886.09601 200"
   version="1.1"
   id="svg5"
   sodipodi:docname="TikTok.svg"
   inkscape:version="1.3 (0e150ed6c4, 2023-07-21)"
   xmlns:inkscape="http://www.inkscape.org/namespaces/inkscape"
   xmlns:sodipodi="http://sodipodi.sourceforge.net/DTD/sodipodi-0.dtd"
   xmlns="http://www.w3.org/2000/svg"
   xmlns:svg="http://www.w3.org/2000/svg"
   xmlns:rdf="http://www.w3.org/1999/02/22-rdf-syntax-ns#"
   xmlns:cc="http://creativecommons.org/ns#"
   xmlns:dc="http://purl.org/dc/elements/1.1/">
  <defs
     id="defs5" />
  <sodipodi:namedview
     id="namedview5"
     pagecolor="#ffffff"
     bordercolor="#000000"
     borderopacity="0.25"
     inkscape:showpageshadow="2"
     inkscape:pageopacity="0.0"
     inkscape:pagecheckerboard="0"
     inkscape:deskcolor="#d1d1d1"
     inkscape:zoom="0.46198454"
     inkscape:cx="-44.373779"
     inkscape:cy="29.221757"
     inkscape:window-width="1920"
     inkscape:window-height="991"
     inkscape:window-x="-9"
     inkscape:window-y="-9"
     inkscape:window-maximized="1"
     inkscape:current-layer="svg5" />
  <!-- Generator: Sketch 55.2 (78181) - https://sketchapp.com -->
  <title
     id="title1">编组</title>
  <desc
     id="desc1">Created with Sketch.</desc>
  <g
     id="g5"
     transform="matrix(9.2081031,0,0,9.2081031,-7.0901159,-2.5782685)"
     style="fill:#808080">
    <g
       id="页面1"
       stroke="none"
       stroke-width="1"
       fill="none"
       fill-rule="evenodd"
       style="fill:#808080">
      <g
         id="编组"
         transform="translate(0.77,0.28)"
         fill-rule="nonzero"
         style="fill:#808080">
        <polygon
           id="路径"
           fill="#000000"
           points="10.46,4.72 10.46,21.72 5.23,21.72 5.23,4.72 0.01,4.72 3.5527137e-15,0.06 16.12,0.06 14.64,4.72 "
           style="fill:#808080" />
        <polygon
           id="polygon1"
           fill="#000000"
           points="52.99,4.72 52.99,21.72 47.77,21.72 47.77,4.72 42.53,4.72 42.52,0.06 59.01,0.06 57.53,4.72 "
           style="fill:#808080" />
        <polygon
           id="polygon2"
           fill="#000000"
           points="17.14,21.72 17.1,6.95 22.27,6.95 22.27,21.72 "
           style="fill:#808080" />
        <polygon
           id="polygon3"
           fill="#000000"
           points="24.32,21.72 24.32,0 29.48,0 29.48,10.09 34.6,5.09 40.76,5.09 34.29,11.37 41.54,21.72 35.85,21.72 31.01,14.53 29.48,16.01 29.48,21.72 "
           style="fill:#808080" />
        <polygon
           id="polygon4"
           fill="#000000"
           points="79.06,21.72 79.01,0 84.23,0 84.23,10.09 89.34,5.09 95.5,5.09 89.03,11.37 96.23,21.72 90.54,21.72 85.71,14.53 84.23,16.01 84.23,21.72 "
           style="fill:#808080" />
        <circle
           id="椭圆形"
           fill="#000000"
           cx="19.690001"
           cy="2.6600001"
           r="2.5999999"
           style="fill:#808080" />
        <path
           d="m 58.35,12.88 c 0.0016,-4.6134273 3.550647,-8.4499024 8.15,-8.81 -0.23,0 -0.54,0 -0.77,0 -4.674305,0.2726496 -8.325243,4.1427496 -8.325243,8.825 0,4.68225 3.650938,8.55235 8.325243,8.825 0.23,0 0.54,0 0.77,0 -4.610869,-0.360978 -8.164109,-4.215044 -8.15,-8.84 z"
           id="path4"
           fill="#25f4ee"
           style="fill:#808080" />
        <path
           d="m 68.51,4.04 c -0.24,0 -0.55,0 -0.78,0 4.58446,0.3786564 8.112332,4.2099289 8.112332,8.81 0,4.600071 -3.527872,8.431344 -8.112332,8.81 0.23,0 0.54,0 0.78,0 4.882197,0 8.84,-3.957803 8.84,-8.84 0,-4.8821972 -3.957803,-8.84 -8.84,-8.84 z"
           id="path5"
           fill="#fe2c55"
           style="fill:#808080" />
        <path
           d="m 67.11,17.18 c -2.374824,0 -4.3,-1.925176 -4.3,-4.3 0,-2.374824 1.925176,-4.3 4.3,-4.3 2.374824,0 4.3,1.925176 4.3,4.3 -0.0055,2.372543 -1.927457,4.294502 -4.3,4.3 z m 0,-13.14 c -4.882197,0 -8.84,3.9578028 -8.84,8.84 0,4.882197 3.957803,8.84 8.84,8.84 4.882197,0 8.84,-3.957803 8.84,-8.84 0,-2.344514 -0.931354,-4.5930024 -2.589176,-6.250824 C 71.703002,4.9713545 69.454514,4.04 67.11,4.04 Z"
           id="形状"
           fill="#000000"
           style="fill:#808080" />
      </g>
    </g>
  </g>
  <metadata
     id="metadata5">
    <rdf:RDF>
      <cc:Work
         rdf:about="">
        <dc:title>编组</dc:title>
      </cc:Work>
    </rdf:RDF>
  </metadata>
  <path
     style="fill:#f9f9f9;stroke-width:2.86337"
     d="M 49.785216,120.13389 V 42.209205 H 26.299025 2.8128331 L 1.4045455,22.369142 C 0.62998732,11.457107 0.33492333,2.1904138 0.74884757,1.7764895 1.1627718,1.3625653 34.199547,1.2805517 74.163904,1.5942373 L 146.82637,2.1645746 140.41405,22.18689 134.00172,42.209205 H 114.6215 95.241282 v 77.924685 77.92469 H 72.513249 49.785216 Z"
     id="path1" />
  <path
     style="fill:#f9f9f9;stroke-width:2.86337"
     d="M 158.01395,132.03905 V 66.019525 h 22.72803 22.72803 v 66.019525 66.01953 h -22.72803 -22.72803 z"
     id="path2" />
  <path
     style="fill:#f9f9f9;stroke-width:2.86337"
     d="m 166.99746,41.068405 c -12.82149,-10.788574 -9.97532,-30.585641 5.31574,-36.9746561 9.82052,-4.10327552 16.81373,-2.5355277 24.94045,5.591183 4.85006,4.8500621 6.21636,8.1925791 6.21636,15.2076761 0,19.113419 -21.59772,28.69214 -36.47255,16.175797 z"
     id="path3" />
  <path
     style="fill:#f9f9f9;stroke-width:2.86337"
     d="M 225.11576,99.570432 V 1.0822873 h 22.72803 22.72803 V 47.803537 94.524784 l 24.35147,-22.885837 24.35146,-22.885839 25.9749,0.03741 25.97489,0.03741 -28.46148,27.956497 -28.46149,27.956495 29.30453,41.78854 c 16.1175,22.98369 30.74179,43.98016 32.49844,46.65882 l 3.19391,4.8703 -24.60041,-0.0816 -24.60041,-0.0816 -20.56346,-30.44118 c -11.3099,-16.74266 -21.25152,-31.54907 -22.09248,-32.90315 -1.00504,-1.61827 -4.15759,0.0858 -9.19944,4.97251 l -7.67043,7.43447 v 25.55028 25.55028 h -22.72803 -22.72803 z"
     id="path6" />
  <path
     style="fill:#f9f9f9;stroke-width:2.86337"
     d="M 441.57322,120.13389 V 42.209205 H 416.68061 391.788 V 21.645746 1.0822873 h 74.93028 c 70.31989,0 74.86556,0.2330729 73.87829,3.7880055 -0.5786,2.0834031 -3.37086,11.3278422 -6.20504,20.5431982 l -5.15304,16.755193 -21.1046,0.02026 -21.10461,0.02026 v 77.924686 77.92469 h -22.72803 -22.72803 z"
     id="path7" />
  <path
     style="fill:#f9f9f9;stroke-width:2.86337"
     d="m 591.84487,194.24399 c -22.4027,-8.00089 -39.81276,-24.97368 -48.54141,-47.32224 -2.26704,-5.80445 -4.15794,-9.09246 -4.20199,-7.30669 -0.15681,6.35611 10.53271,25.88961 19.47929,35.59551 4.99903,5.42331 8.19793,9.86056 7.10866,9.86056 -4.01373,0 -22.13194,-20.92463 -28.11391,-32.46862 -5.57698,-10.76246 -6.16927,-13.9828 -6.17078,-33.55091 -10e-4,-19.414831 0.63378,-22.939845 6.16388,-34.201938 6.08589,-12.393973 25.21594,-33.982159 30.11278,-33.982159 1.3867,0 -1.95629,4.626778 -7.42887,10.281729 -5.47258,5.654952 -11.06494,12.716876 -12.42746,15.693166 l -2.47731,5.411437 3.85053,-5.360271 c 14.28517,-19.886196 29.84904,-30.827724 51.42481,-36.15208 33.941,-8.375778 70.35333,8.413721 87.68297,40.430063 7.27771,13.445502 8.92818,13.201574 2.03946,-0.301419 -6.35358,-12.454049 -20.6518,-27.266095 -33.35291,-34.55148 -13.20716,-7.57566 -8.67259,-8.233404 6.87068,-0.996599 48.83054,22.735062 62.3489,86.191661 26.67662,125.222821 -12.19667,13.3451 -29.3859,23.4304 -42.01944,24.65374 -32.09959,3.10829 -45.9527,2.87495 -56.6756,-0.95462 z m 72.8683,-8.93481 c 10.29683,-7.40004 16.68656,-14.14636 22.26471,-23.50723 3.73494,-6.26773 -0.69271,-2.0221 -6.24172,5.98513 -3.31252,4.77996 -11.83549,12.57243 -18.93993,17.31659 -7.10444,4.74417 -11.99068,8.62576 -10.85831,8.62576 1.13237,0 7.33124,-3.78911 13.77525,-8.42025 z m -31.04365,-29.54236 c 15.32434,-6.40292 24.36116,-19.93824 24.36116,-36.48807 0,-16.44126 -7.94521,-29.834118 -22.0794,-37.21816 -7.53072,-3.934235 -28.39974,-3.934235 -35.93047,0 -7.84809,4.100033 -16.95671,13.97395 -19.77711,21.43876 -5.41777,14.33931 -0.74316,35.52391 9.97809,45.21919 10.99756,9.94515 29.37813,12.92693 43.44773,7.04828 z m -95.35499,-28.55687 c -0.54881,-2.10606 -1.03394,-0.90702 -1.07805,2.66453 -0.0441,3.57154 0.40492,5.29468 0.99784,3.8292 0.59293,-1.46549 0.62902,-4.38767 0.0802,-6.49373 z m 160.11205,-1.12348 c -0.60048,-1.48814 -1.09178,-0.27057 -1.09178,2.70572 0,2.97629 0.4913,4.19386 1.09178,2.70572 0.60048,-1.48815 0.60048,-3.92329 0,-5.41144 z M 538.31453,105.56421 c -0.54881,-2.10606 -1.03394,-0.90703 -1.07805,2.66452 -0.0441,3.57155 0.40492,5.29469 0.99784,3.8292 0.59293,-1.46549 0.62902,-4.38766 0.0802,-6.49372 z m 160.17852,0 c -0.54881,-2.10606 -1.03394,-0.90703 -1.07805,2.66452 -0.0441,3.57155 0.40492,5.29469 0.99785,3.8292 0.59292,-1.46549 0.62901,-4.38766 0.0802,-6.49372 z m -2.18595,-9.646498 c -0.69099,-1.726753 -1.2039,-1.213842 -1.30777,1.307764 -0.094,2.281821 0.41761,3.560274 1.13688,2.841004 0.71927,-0.71927 0.79617,-2.586216 0.17089,-4.148768 z M 545.40651,84.418409 c 0,-1.190516 -0.94423,-0.703486 -2.09829,1.082288 -1.15405,1.785774 -2.09828,4.22092 -2.09828,5.411436 0,1.190516 0.94423,0.703487 2.09828,-1.082287 1.15406,-1.785774 2.09829,-4.220921 2.09829,-5.411437 z"
     id="path8" />
  <path
     style="fill:#f9f9f9;stroke-width:2.86337"
     d="M 729.46164,99.570432 V 1.0822873 h 22.72803 22.72804 V 47.963419 94.844553 l 23.6581,-23.070814 23.6581,-23.070811 26.66826,0.107344 26.66825,0.107345 -28.76972,27.7657 -28.76974,27.765703 32.29023,46.26363 32.29023,46.26364 -24.08395,0.63292 c -22.87646,0.6012 -24.24675,0.39012 -27.33082,-4.21002 -1.78578,-2.66361 -11.86914,-17.41067 -22.40747,-32.77123 l -19.16059,-27.92829 -7.35545,7.12918 -7.35543,7.12917 v 25.55028 25.55028 h -22.72804 -22.72803 z"
     id="path9" />
</svg>
